<svg xmlns="http://www.w3.org/2000/svg" width="119" height="99" fill="none" viewBox="0 0 119 99"><g fill-rule="evenodd" clip-path="url(#a)" clip-rule="evenodd"><path fill="#2760AE" d="M54.401-.054h6.4c14.162 1.137 25.841 7.098 35.039 17.88-.008.167.064.276.217.328a38.068 38.068 0 0 1 3.254 4.306 1.37 1.37 0 0 1-.813.273 38.596 38.596 0 0 0-1.356-.163 46.755 46.755 0 0 0-9.655-10.359.999.999 0 0 0-.65 0 50.746 50.746 0 0 1-4.286 2.563c-.05.374.06.7.326.981a7.66 7.66 0 0 1 1.573 1.854c-.008.166.064.275.217.327a72.65 72.65 0 0 1 3.091 4.47c.058.143.003.216-.162.218-.658.027-1.309-.01-1.953-.11a46.013 46.013 0 0 0-5.261-6.65A62.671 62.671 0 0 1 72.3 18.7c-.222.06-.258.17-.108.327l1.302 3.489a7.86 7.86 0 0 1-1.845.109 29.936 29.936 0 0 1-1.518-3.053 1.239 1.239 0 0 0-.272-.218 54.043 54.043 0 0 1-10.901 1.472 8.065 8.065 0 0 0-.326 1.799 3.78 3.78 0 0 1-1.79 0 6.171 6.171 0 0 0-.271-1.799 61.29 61.29 0 0 1-11.336-1.472 67.835 67.835 0 0 0-1.573 3.271 3.495 3.495 0 0 1-1.953.109c.287-.977.667-1.922 1.14-2.835.165-.326.219-.653.162-.981a152.992 152.992 0 0 1-8.081-2.944 60.004 60.004 0 0 0-5.153 6.651.524.524 0 0 1-.434.109 5.356 5.356 0 0 1-1.519-.109 32.124 32.124 0 0 1 2.224-3.707c.974-1.288 1.968-2.56 2.983-3.816a109.95 109.95 0 0 1-4.827-2.944 42.59 42.59 0 0 0-7.81 7.523c-.768.97-1.51 1.952-2.224 2.944a8.8 8.8 0 0 1-1.953-.11C23.924 10.822 34.663 3.572 48.435.765a61.205 61.205 0 0 1 5.966-.818Zm1.736 1.744c3.95-.067 7.855.315 11.716 1.145.147.211.111.393-.109.545-5.28 3.13-10.849 3.748-16.705 1.854a19.418 19.418 0 0 1-3.472-1.745c-.462-.331-.426-.567.109-.709a52.317 52.317 0 0 1 8.461-1.09ZM35.852 12.375c-.464.32-.898.683-1.302 1.09a4.256 4.256 0 0 1-1.193-.49l-3.255-1.854c-.155-.247-.12-.465.109-.654 4.363-3.028 9.1-5.3 14.21-6.814.424.19.804.444 1.14.763a.515.515 0 0 1-.055.545 67.731 67.731 0 0 0-8.678 6.378 13.07 13.07 0 0 0-.976 1.036Zm34.821-8.722a43.61 43.61 0 0 1 14.482 6.868.465.465 0 0 1 0 .437 201.222 201.222 0 0 0-3.851 2.235 1.35 1.35 0 0 1-.76 0 48.815 48.815 0 0 0-10.63-8.287c-.186-.123-.24-.287-.163-.49.285-.296.592-.55.922-.763Zm2.17 5.342c.05.153.16.226.325.218a67.842 67.842 0 0 1 5.478 4.798.924.924 0 0 1 .054.436 43.8 43.8 0 0 1-7.16 2.453.702.702 0 0 1-.541 0 89.57 89.57 0 0 0-6.238-9.65.54.54 0 0 1-.054-.326 42.87 42.87 0 0 0 2.712-1.09 33.54 33.54 0 0 1 5.424 3.161ZM47.567 5.942c.932.232 1.836.559 2.712.982.124.209.142.427.054.654a61.582 61.582 0 0 0-6.02 9.376.509.509 0 0 1-.542.055 57.003 57.003 0 0 1-6.997-2.453.719.719 0 0 1 .163-.709 59.17 59.17 0 0 1 10.63-7.905Zm9.22 10.358a16.282 16.282 0 0 1-.325 2.508 54.498 54.498 0 0 1-10.088-1.09c-.018-.257 0-.512.054-.764a66.614 66.614 0 0 1 6.184-9.267c1.348.203 2.704.385 4.067.545.086 2.688.122 5.378.109 8.068Zm4.99-8.504a3.5 3.5 0 0 1 .869.054 47.705 47.705 0 0 1 6.291 9.759 48.864 48.864 0 0 1-10.197 1.199c-.139-3.525-.139-7.05 0-10.576a21.836 21.836 0 0 0 3.038-.436Z"/><path fill="#97A6D4" d="M72.843 8.995c.165-.008.274.065.325.218-.165.008-.274-.065-.325-.218Z" opacity=".992"/><path fill="#6E88C4" d="M35.852 12.375c-.34.396-.701.777-1.085 1.145-.101.075-.174.057-.217-.055.405-.407.839-.77 1.302-1.09Z"/><path fill="#C0C8E5" d="M56.788 16.3v2.508h-.326c.174-.826.282-1.662.326-2.508Z" opacity=".812"/><path fill="#9DABD6" d="M84.45 17.608c.152.052.225.161.217.328-.153-.052-.225-.161-.217-.328ZM95.84 17.827c.153.051.225.16.217.327-.153-.052-.225-.16-.217-.327Z"/><path fill="#9AA9D6" d="M72.3 18.699a.627.627 0 0 0-.108.327c-.15-.158-.114-.267.108-.327Z" opacity=".914"/><path fill="#8497CC" d="M16.217 22.515c.63.108 1.282.144 1.953.109a4.984 4.984 0 0 1-2.061 0c.013-.066.05-.103.108-.11Z" opacity=".992"/><path fill="#889ACE" d="M73.493 22.515c.06.006.096.043.109.109a4.478 4.478 0 0 1-1.953 0 7.865 7.865 0 0 0 1.844-.11Z" opacity=".992"/><path fill="#6B85C2" d="M85.643 22.515c.644.1 1.295.136 1.953.109a5.296 5.296 0 0 1-1.845.054.246.246 0 0 1-.108-.163Z"/><path fill="#96A5D4" d="M27.824 22.624c.485.107.991.144 1.519.109a3.133 3.133 0 0 1-1.627 0c.013-.066.05-.103.108-.11Z" opacity=".992"/><path fill="#155CAB" d="M57.222 28.948c.035.168.143.241.325.218l1.085.545c.035.169.143.242.325.218.487.281.993.5 1.52.654v-2.507h9.328c.14 4.996.14 9.975 0 14.937-3.078.034-6.152-.002-9.22-.11-1.729-2.397-4.007-4.05-6.834-4.96a21.187 21.187 0 0 0-6.943-1.145 5.753 5.753 0 0 0-2.712.6c-1.057.989-.985 1.898.217 2.725a551.686 551.686 0 0 0 16.38 4.907c.86.286 1.691.632 2.495 1.036.035.168.143.241.325.218 3.304 1.812 5.672 4.465 7.106 7.959 1.525 5.41.313 10.08-3.634 14.01-2.552 2.009-5.444 3.244-8.678 3.707-6.368.865-12.335-.298-17.9-3.489a.91.91 0 0 0-.433-.054v2.944h-9.655V55.115c2.93-.018 5.858 0 8.787.055 1.228 2.197 2.964 3.85 5.207 4.96.035.17.143.242.325.219 3.902 1.762 7.916 2.071 12.041.926.834-.217 1.178-.744 1.03-1.58a2.2 2.2 0 0 0-.813-.818 513.582 513.582 0 0 0-16.054-5.016c-3.965-1.19-7.093-3.498-9.384-6.923-1.415-2.633-1.885-5.431-1.41-8.396.677-4.713 3.19-8.002 7.54-9.867A23.849 23.849 0 0 1 49.41 27.04c2.71.226 5.313.862 7.81 1.908Z"/><path fill="#145BAB" d="M107.881 29.493c.035.169.143.241.325.218h.109c.035.169.143.242.325.218a16.542 16.542 0 0 1 6.617 5.56c-.007.167.064.276.217.328.365.423.673.896.922 1.417a30.442 30.442 0 0 1 2.55 9.922v4.906a28.279 28.279 0 0 1-2.984 10.576c-2.086 3.587-5.069 6.113-8.949 7.578-5.761 2.138-11.655 2.61-17.682 1.417a25.676 25.676 0 0 1-10.63-5.015 18.085 18.085 0 0 1-3.906-5.18c.023-.182-.049-.291-.217-.326-1.77-4.063-2.512-8.315-2.224-12.757.102-3.302.717-6.5 1.844-9.594 2.189-4.999 5.86-8.36 11.011-10.086 6.306-2.184 12.67-2.366 19.092-.545a37.95 37.95 0 0 1 3.58 1.363Zm-13.017 8.395c2.191-.196 4.18.331 5.966 1.581.895.88 1.419 1.951 1.573 3.217.387 1.96.586 3.941.596 5.942-.056 2.42-.183 4.837-.379 7.25-.247 2.592-1.603 4.246-4.068 4.961-2.241.589-4.447.48-6.617-.327-1.667-.842-2.625-2.205-2.875-4.089-.216-.97-.36-1.952-.434-2.943-.092-2.982-.056-5.962.108-8.94.044-4.096 2.087-6.313 6.13-6.652Z"/><path fill="#105BAB" d="M-.055 27.421h27.77c-.035 3.253 0 6.488.11 9.704v1.09h-6.401c-.108 7.469-.145 14.955-.109 22.46h6.4v10.576H-.054V60.675h6.4V38.106h-6.4V27.421Z"/><path fill="#9BAAD6" d="M-.055 27.421v-.109h27.88v9.813c-.11-3.216-.145-6.45-.11-9.704H-.054Z" opacity=".992"/><path fill="#92A3D2" d="M57.222 28.948c.131.047.24.12.326.218-.183.023-.291-.05-.326-.218ZM107.881 29.493c.131.047.24.12.325.218-.182.023-.29-.05-.325-.218ZM58.632 29.71c.132.048.24.12.326.219-.182.023-.29-.05-.326-.218ZM108.315 29.71c.131.048.24.12.325.219-.182.023-.29-.05-.325-.218Z"/><path fill="#97A6D4" d="M115.257 35.49c.153.051.225.16.217.327-.153-.052-.224-.161-.217-.328Z" opacity=".992"/><path fill="#BAC3E3" d="M-.055 38.215v-.109h6.4v22.57h-6.4v-.11h6.292v-22.35H-.055Z" opacity=".812"/><path fill="#5677BA" d="M60.585 42.904c3.069.107 6.142.143 9.22.109-3.018.127-6.056.145-9.112.054a.246.246 0 0 1-.108-.163Z"/><path fill="#92A3D2" d="M63.188 46.065c.132.047.24.12.326.218-.182.024-.29-.049-.326-.218ZM44.313 60.13c.131.048.24.12.325.219-.182.023-.29-.05-.325-.218Z"/><path fill="#A8B3DB" d="M21.424 38.215v22.352h6.4V71.36H-.055v-.11h27.77V60.677h-6.4c-.036-7.506 0-14.992.109-22.46Z" opacity=".812"/><path fill="#92A3D2" d="M74.579 61.112c.168.035.24.144.217.327a.77.77 0 0 1-.217-.327Z"/><path fill="#9AA8D5" d="M43.879 75.94a3.586 3.586 0 0 0-1.736.218c-.098-.077-.134-.186-.108-.327a7.865 7.865 0 0 1 1.844.11Z" opacity=".992"/><path fill="#2660AE" d="M21.533 80.192c-.008.167.064.276.217.327a54.108 54.108 0 0 0 6.291 5.942.997.997 0 0 0 .651 0l4.23-2.453c.082-.162.154-.326.218-.49L29.83 79.32a29.412 29.412 0 0 1-2.007-3.217.395.395 0 0 1 .217-.218 4.706 4.706 0 0 1 1.682.055c.545.748 1.07 1.511 1.573 2.29-.008.166.064.275.217.327.616.692 1.195 1.42 1.735 2.18-.008.167.065.276.217.327a19.69 19.69 0 0 0 1.736 1.745 85.832 85.832 0 0 1 8.244-2.998c.11-.115.129-.242.054-.382a21.385 21.385 0 0 1-1.356-3.271 3.586 3.586 0 0 1 1.736-.218c.558 1.047 1.118 2.101 1.681 3.162.061.057.134.093.218.109a79.933 79.933 0 0 1 11.01-1.363l.163-.164c.054-.58.072-1.162.054-1.744h1.844c.097.625.133 1.243.109 1.853 3.864.166 7.679.674 11.444 1.527a142.901 142.901 0 0 1 1.681-3.326 5.26 5.26 0 0 1 1.844.055 33.968 33.968 0 0 1-1.356 3.38c-.08.124-.063.233.055.327 2.723.906 5.416 1.887 8.081 2.944a47.233 47.233 0 0 0 5.261-6.706 6.554 6.554 0 0 1 2.061.055 44.938 44.938 0 0 1-5.152 7.087c-.254.454-.127.763.38.927 1.46.796 2.906 1.613 4.339 2.453.366-.132.691-.332.976-.6a64.923 64.923 0 0 1 2.386-2.126 3.16 3.16 0 0 0 1.194-1.2 37.365 37.365 0 0 1 2.278-2.507c.152-.052.225-.16.217-.327a28.304 28.304 0 0 1 1.844-2.29c.152-.051.225-.16.217-.327.265-.369.518-.75.76-1.145a6.553 6.553 0 0 1 2.06.055C91.3 88.72 79.692 96.189 64.707 98.455c-2 .234-3.989.398-5.966.49h-1.736c-7.584-.224-14.78-2.042-21.587-5.451v-.327h-.543a39.988 39.988 0 0 1-8.678-5.888c-.051-.153-.16-.226-.325-.218a46.587 46.587 0 0 1-9.655-11.012 3.033 3.033 0 0 1 2.17 0 43.878 43.878 0 0 0 3.146 4.143Zm35.472.763c.07 3.223-.002 6.421-.217 9.595a44.855 44.855 0 0 0-3.417.436l-.488-.109a25.785 25.785 0 0 0-1.736-2.18c.008-.167-.064-.276-.217-.328a.76.76 0 0 0-.325-.436c.008-.166-.065-.275-.217-.327a85.413 85.413 0 0 1-3.634-6.106c-.085-.157-.067-.302.054-.436a42.52 42.52 0 0 1 10.197-1.199v1.09Zm1.953-1.09c3.567-.026 7.074.41 10.522 1.308a57.953 57.953 0 0 1-6.292 9.759 3.912 3.912 0 0 1-1.302 0 24.189 24.189 0 0 0-2.928-.382V79.865ZM44.096 81.61a.768.768 0 0 1 .542.109 83.886 83.886 0 0 0 6.13 9.703c.08.124.063.233-.055.327-.951.482-1.928.864-2.929 1.145a52.573 52.573 0 0 1-10.793-8.014 1.08 1.08 0 0 1-.109-.545 45.585 45.585 0 0 1 7.214-2.725Zm27.336.109a32.124 32.124 0 0 1 7.485 2.398.35.35 0 0 1 .055.436 46.294 46.294 0 0 1-10.902 8.232 1.817 1.817 0 0 1-.76-.109 22.942 22.942 0 0 0-1.952-.818c-.127-.223-.108-.441.054-.654a80.556 80.556 0 0 0 6.02-9.485Zm-34.17 5.887c.051.154.16.226.325.218a48.642 48.642 0 0 0 8.245 6.106c.115.184.097.366-.054.545-.3.283-.644.5-1.031.654a48.148 48.148 0 0 1-14.32-6.814.645.645 0 0 1-.053-.6 63.907 63.907 0 0 1 3.85-2.235 1.13 1.13 0 0 1 .76-.109 65.746 65.746 0 0 0 2.278 2.235Zm43.608-2.29c.256-.017.509 0 .76.055l4.013 2.235c.12.134.139.279.054.436a44.124 44.124 0 0 1-14.481 7.087 2.383 2.383 0 0 1-1.194-1.035 194.412 194.412 0 0 0 6.4-4.58 89.9 89.9 0 0 0 4.448-4.197Zm-23.648 7.087c4.015-.136 7.704.882 11.065 3.053.1.13.136.275.108.436a49.806 49.806 0 0 1-20.72 0 .925.925 0 0 1 .055-.436c2.893-1.883 6.057-2.901 9.492-3.053Z"/><path fill="#97A6D4" d="M96.708 77.14c.008.166-.065.275-.217.326-.008-.166.064-.275.217-.327ZM31.296 78.23c.152.051.225.16.217.327-.153-.052-.225-.16-.217-.327Z" opacity=".992"/><path fill="#9DABD6" d="M94.647 79.756c.008.167-.065.276-.217.327-.008-.166.064-.275.217-.327ZM21.533 80.192c.152.052.225.16.217.327-.153-.051-.225-.16-.217-.327ZM33.249 80.737c.152.052.224.16.217.327-.153-.051-.225-.16-.217-.327Z"/><path fill="#8194CB" d="M57.005 80.955c.108 3.18.144 6.378.108 9.595h-.325c.215-3.174.287-6.372.217-9.595Z" opacity=".992"/><path fill="#6683C2" d="M92.152 82.59a3.16 3.16 0 0 1-1.194 1.2c.362-.436.76-.836 1.194-1.2Z"/><path fill="#9DABD6" d="M25.872 87.061c.166-.008.274.065.326.218-.166.008-.275-.065-.326-.218ZM37.262 87.606c.166-.008.274.065.326.218-.166.008-.275-.064-.326-.218Z"/><path fill="#97A6D4" d="M50.388 87.606c.152.052.225.16.217.327-.153-.051-.225-.16-.217-.327ZM50.93 88.37c.153.051.225.16.217.326-.152-.051-.225-.16-.217-.327Z" opacity=".992"/><path fill="#7A90C9" d="M34.876 93.167h.542v.327a3.208 3.208 0 0 0-.542-.327Z"/></g><defs><clipPath id="a"><path fill="#fff" d="M0 0h119v99H0z"/></clipPath></defs></svg>